<svg xmlns="http://www.w3.org/2000/svg" width="546" height="526" viewBox="0 0 546 526">
  <defs>
    <style>
      .cls-1 {
        fill: #fff;
        fill-rule: evenodd;
      }
    </style>
  </defs>
  <path id="GEAR_1" data-name="GEAR 1" class="cls-1" d="M126.84,63.419l3.58-.99,37.862,23.5c16.739-9.87,36.833-17.057,53.083-21.98q5.394-21.71,10.79-43.424c17.654-7.5,68.175-6.036,81.981-.374l11.05,44.053c18.034,3.882,36.649,12.608,52.659,22.017l38.916-23.481C427.155,69.9,473.4,106.3,474.1,122.343Q462.508,140.87,450.916,159.4c9.3,17.559,15.819,36.693,22,53.115l43.67,11.371c6.412,17.825,6.288,68.5-.4,81.718-19.864,6.644-38.09,3.4-46.734,19.7-0.288,15.894-14.91,29.377-18.466,44.3,6.124,11.119,22.088,28.823,22.641,40.013-19.016,17.259-30.771,41.311-57.885,56.557l-38.12-24.059c-11.092,5.721-50.884,20.122-54.228,23.86q-5.1,20.9-10.2,41.8c-13.95,5.033-76.72,6.018-82.457-2.1L219.905,463.54c-18.668-4.069-34.285-16.928-52.4-21.462L128.33,465c-9.505-7.825-56.079-44.431-56.523-59.3l22.664-38.163c-9.4-14.6-18.818-36.535-21.224-51.452L29.063,303.608c-6.583-18.843-5.989-66.015.1-80.907L73.49,210.856c4.081-18.776,17.046-34.862,21.428-52.412L71.428,119.5,96.037,89.867ZM273,120A144,144,0,1,1,129,264,144,144,0,0,1,273,120Z"/>
</svg>
